<?xml version="1.0" encoding="UTF-8" standalone="no"?>
<!-- Created with Inkscape (http://www.inkscape.org/) -->

<svg
   width="300mm"
   height="200mm"
   viewBox="0 0 300 200"
   version="1.1"
   id="svg5"
   xml:space="preserve"
   xmlns:inkscape="http://www.inkscape.org/namespaces/inkscape"
   xmlns:sodipodi="http://sodipodi.sourceforge.net/DTD/sodipodi-0.dtd"
   xmlns="http://www.w3.org/2000/svg"
   xmlns:svg="http://www.w3.org/2000/svg"><sodipodi:namedview
     id="namedview7"
     pagecolor="#ffffff"
     bordercolor="#000000"
     borderopacity="0.25"
     inkscape:showpageshadow="2"
     inkscape:pageopacity="0.0"
     inkscape:pagecheckerboard="0"
     inkscape:deskcolor="#d1d1d1"
     inkscape:document-units="mm"
     showgrid="false" /><defs
     id="defs2" /><g
     inkscape:label="Capa 1"
     inkscape:groupmode="layer"
     id="layer1"><g
       id="g3189"
       transform="matrix(0.34105209,0,0,0.33781343,60.769548,10.527964)"><g
         id="_x33_95-youtube"><g
           id="g3174"><path
             d="M 476.387,144.888 C 471.096,124.969 455.509,109.28 435.717,103.955 399.845,94.282 256,94.282 256,94.282 c 0,0 -143.845,0 -179.719,9.674 -19.791,5.325 -35.378,21.013 -40.668,40.933 -9.612,36.105 -9.612,111.438 -9.612,111.438 0,0 0,75.334 9.612,111.438 5.29,19.92 20.877,34.955 40.668,40.281 35.874,9.673 179.719,9.673 179.719,9.673 0,0 143.845,0 179.717,-9.674 19.792,-5.326 35.379,-20.361 40.67,-40.281 9.612,-36.104 9.612,-111.438 9.612,-111.438 0,0 0,-75.332 -9.612,-111.438 z"
             style="fill:#ff0000"
             id="path3170" /><polygon
             points="208.954,324.723 208.954,187.93 329.18,256.328 "
             style="fill:#ffffff"
             id="polygon3172" /></g></g><g
         id="Layer_1" /></g></g></svg>
