<?xml version="1.0" encoding="UTF-8" standalone="no"?>
<!-- Created with Inkscape (http://www.inkscape.org/) -->

<svg
   width="300mm"
   height="200mm"
   viewBox="0 0 300 200"
   version="1.1"
   id="svg5"
   xml:space="preserve"
   inkscape:export-filename="course-yt.svg"
   inkscape:export-xdpi="25.4"
   inkscape:export-ydpi="25.4"
   xmlns:inkscape="http://www.inkscape.org/namespaces/inkscape"
   xmlns:sodipodi="http://sodipodi.sourceforge.net/DTD/sodipodi-0.dtd"
   xmlns="http://www.w3.org/2000/svg"
   xmlns:svg="http://www.w3.org/2000/svg"><sodipodi:namedview
     id="namedview7"
     pagecolor="#ffffff"
     bordercolor="#000000"
     borderopacity="0.25"
     inkscape:showpageshadow="2"
     inkscape:pageopacity="0.0"
     inkscape:pagecheckerboard="0"
     inkscape:deskcolor="#d1d1d1"
     inkscape:document-units="mm"
     showgrid="false" /><defs
     id="defs2" /><g
     inkscape:label="Capa 1"
     inkscape:groupmode="layer"
     id="layer1"><g
       style="clip-rule:evenodd;fill-rule:evenodd;stroke-linejoin:round;stroke-miterlimit:2"
       id="g6344"
       transform="matrix(0.36678107,0,0,0.36636439,55.59042,3.1233318)"><g
         id="Layer_1-2"><path
           d="M 76.351,247.022 H 44.912 V 256 h 31.439 v 35.935 H 26.947 L 8.982,273.97 v -94.321 h 35.93 v 31.439 h 31.439 z"
           style="fill:#ffffff;fill-rule:nonzero"
           id="path6312" /><path
           d="M 211.088,291.935 H 103.298 L 85.333,273.97 v -62.882 h 35.93 V 256 h 8.983 v -44.912 h 35.93 V 256 h 8.982 v -44.912 h 35.93 z"
           style="fill:#ffffff;fill-rule:nonzero"
           id="path6314" /><rect
           height="80.842003"
           style="fill:#ffffff"
           width="35.93"
           x="220.07001"
           y="211.088"
           id="rect6316" /><rect
           height="22.455999"
           style="fill:#ffffff"
           width="35.93"
           x="220.07001"
           y="179.649"
           id="rect6318" /><path
           d="M 332.351,247.022 H 300.912 V 256 h 31.439 v 35.935 H 282.947 L 264.983,273.97 v -94.321 h 35.929 v 31.439 h 31.439 z"
           style="fill:#ffffff;fill-rule:nonzero"
           id="path6320" /><path
           d="m 413.193,247.022 h -35.93 V 256 h 35.93 v 35.935 H 359.298 L 341.333,273.97 v -44.913 l 17.965,-17.969 h 53.895 z"
           style="fill:#ffffff;fill-rule:nonzero"
           id="path6322" /><path
           d="m 503.018,291.935 h -35.93 v -44.913 h -8.983 v 44.913 H 422.176 V 179.649 h 35.929 v 31.439 h 26.948 l 17.965,17.969 z"
           style="fill:#ffffff;fill-rule:nonzero"
           id="path6324" /><path
           d="m 489.544,202.106 h -22.456 v -31.439 h -49.309 l -22.677,31.439 h -40.295 l -13.474,13.473 v -13.473 h -31.438 v -31.439 h -98.807 v 31.439 H 72.084 L 49.404,170.667 H 0 v 107.79 l 62.877,62.877 h 62.877 v -17.965 l 17.965,17.965 h 121.264 v -17.965 l 17.964,17.965 h 58.386 v -17.965 l 17.965,17.965 H 471.579 L 512,300.913 V 224.562 Z M 76.351,247.018 H 44.912 V 256 h 31.439 v 35.93 H 26.947 L 8.982,273.965 v -94.316 h 35.93 v 31.439 H 76.351 Z M 211.088,291.93 H 103.298 L 85.333,273.965 v -62.877 h 35.93 V 256 h 8.983 v -44.912 h 35.93 V 256 h 8.982 v -44.912 h 35.93 z m 44.912,0 H 220.07 V 211.088 H 256 Z m 0,-89.824 H 220.07 V 179.649 H 256 Z m 76.351,44.912 H 300.912 V 256 h 31.439 v 35.93 h -49.404 l -17.964,-17.965 v -94.316 h 35.929 v 31.439 h 31.439 z m 80.842,0 h -35.93 V 256 h 35.93 v 35.93 h -53.895 l -17.965,-17.965 v -44.912 l 17.965,-17.965 h 53.895 z m 89.825,44.912 h -35.93 v -44.912 h -8.983 V 291.93 H 422.176 V 179.649 h 35.929 v 31.439 h 26.948 l 17.965,17.965 z"
           style="fill:#9146ff;fill-rule:nonzero"
           id="path6326" /></g></g></g></svg>
