<?xml version="1.0" encoding="UTF-8" standalone="no"?>
<!-- Created with Inkscape (http://www.inkscape.org/) -->

<svg
   width="300mm"
   height="200mm"
   viewBox="0 0 300 200"
   version="1.1"
   id="svg5"
   xml:space="preserve"
   inkscape:export-filename="course-udemy.svg"
   inkscape:export-xdpi="25.4"
   inkscape:export-ydpi="25.4"
   xmlns:inkscape="http://www.inkscape.org/namespaces/inkscape"
   xmlns:sodipodi="http://sodipodi.sourceforge.net/DTD/sodipodi-0.dtd"
   xmlns="http://www.w3.org/2000/svg"
   xmlns:svg="http://www.w3.org/2000/svg"><sodipodi:namedview
     id="namedview7"
     pagecolor="#ffffff"
     bordercolor="#000000"
     borderopacity="0.25"
     inkscape:showpageshadow="2"
     inkscape:pageopacity="0.0"
     inkscape:pagecheckerboard="0"
     inkscape:deskcolor="#d1d1d1"
     inkscape:document-units="mm"
     showgrid="false" /><defs
     id="defs2" /><g
     inkscape:label="Capa 1"
     inkscape:groupmode="layer"
     id="layer1"><g
       id="g7913"
       transform="matrix(0.22467593,0,0,0.21530957,60.993241,60.133348)"><path
         d="M 124.29,71.82 62.14,35.91 0,71.82 V 35.91 L 62.15,0 124.3,35.91 v 35.91 z"
         fill="#a435f0"
         id="path7901" /><path
         d="m 32.56,101.97 v 79.15 c 0,20.45 15.26,30.42 29.59,30.42 14.45,0 29.6,-10.23 29.6,-30.69 v -78.88 h 32.55 v 81.04 c 0,18.84 -5.92,33.37 -17.75,43.34 -11.85,9.96 -26.64,14.81 -44.68,14.81 -18.02,0 -32.82,-4.84 -44.38,-14.81 C 5.92,216.39 0,202.4 0,183.81 v -81.84 z m 373.19,98.37 24.18,13.97 c -14.75,16.82 -34.42,26.58 -59.14,26.58 -21.26,0 -38.75,-6.46 -51.93,-19.11 -13.18,-12.66 -19.9,-29.63 -19.9,-50.9 v -1.06 c 0,-21.55 6.72,-38.78 19.9,-51.97 13.46,-13.19 30.42,-19.65 51.13,-19.65 19.65,0 35.78,6.46 48.15,19.65 12.65,13.19 18.84,29.35 18.84,48.74 0,6.25 -0.71,12.9 -0.71,12.9 H 331.09 c 1.77,20.62 17.43,33.94 40.78,33.94 12.8,0 24.03,-4.31 33.88,-13.09 z m -61.86,-66.06 c -6.94,5.4 -10.93,12.04 -11.97,19.92 h 72.2 c -0.3,-7.62 -3.77,-14.25 -10.19,-19.65 -6.74,-5.93 -14.54,-8.89 -23.95,-8.89 -9.95,0 -18.84,2.96 -26.1,8.61 z m 389.57,124.9 C 720.26,290.39 706.44,301 685.25,301 h -14.69 v -28.88 h 11.88 c 7.29,0 14.06,-2.74 20.52,-17.65 l 6.46,-14.93 -55.7,-137.57 h 33.1 l 39.55,99.08 40.63,-99.08 h 33.09 L 733.47,259.18 Z M 251.04,50.02 h 32.29 v 187.64 h -32.29 v -12.49 c -7.36,6.79 -21.29,15.45 -43.32,15.45 -19.09,0 -35.24,-6.73 -48.42,-20.2 -12.92,-13.73 -19.37,-30.42 -19.37,-50.62 0,-20.19 6.45,-36.88 19.37,-50.35 C 172.48,105.73 188.62,99 207.72,99 c 16.05,0 32.65,5.69 43.32,15.26 z m 2.43,119.8 c 0,-11.86 -4.05,-21.82 -12.12,-29.62 -7.8,-7.81 -17.75,-11.85 -29.33,-11.85 -11.57,0 -20.98,4.04 -28.78,11.85 -7.53,7.8 -11.3,17.76 -11.3,29.62 0,11.84 3.78,21.8 11.3,29.61 7.8,7.81 17.21,11.85 28.78,11.85 11.58,0 21.53,-4.04 29.33,-11.85 8.07,-7.81 12.12,-17.77 12.12,-29.61 z M 603.53,99.29 c 28.08,0 47.09,18.99 47.09,54.37 v 84 h -32.29 v -79.43 c 0,-18.57 -8.88,-30.15 -24.22,-30.15 -15.87,0 -26.89,12.93 -26.89,31.5 v 78.09 H 535.2 v -79.42 c 0,-18.58 -8.87,-30.16 -24.22,-30.16 -15.05,0 -26.36,13.19 -26.36,31.5 v 78.08 H 452.61 V 101.99 h 32.01 v 14.11 c 5.71,-7 17.16,-16.82 36.59,-16.82 22.98,0 32.82,13.32 36.31,19.99 8.74,-9.81 21.48,-19.99 46.01,-19.99 z"
         id="path7903" /></g></g></svg>
